<svg width="10" height="10" viewBox="0 0 10 10" fill="none" xmlns="http://www.w3.org/2000/svg">
<path d="M1.25 0H8.75C9.43359 0 10 0.566406 10 1.25V6.25C10 6.93359 9.43359 7.5 8.75 7.5H5.9375L6.25 8.4375H7.65625C7.91016 8.4375 8.125 8.65234 8.125 8.90625C8.125 9.16016 7.91016 9.375 7.65625 9.375H2.34375C2.08984 9.375 1.875 9.16016 1.875 8.90625C1.875 8.65234 2.08984 8.4375 2.34375 8.4375H3.75L4.0625 7.5H1.25C0.566406 7.5 0 6.93359 0 6.25V1.25C0 0.566406 0.566406 0 1.25 0ZM1.875 1.25C1.52344 1.25 1.25 1.52344 1.25 1.875V5C1.25 5.35156 1.52344 5.625 1.875 5.625H8.125C8.47656 5.625 8.75 5.35156 8.75 5V1.875C8.75 1.52344 8.47656 1.25 8.125 1.25H1.875Z" fill="#A49980"/>
</svg>
