<svg width="9" height="10" viewBox="0 0 9 10" fill="none" xmlns="http://www.w3.org/2000/svg">
<path opacity="0.5" d="M5 0C5.37109 0 5.74219 0.0390625 6.11328 0.117188C6.30859 0.175781 6.44531 0.332031 6.46484 0.527344C6.48438 0.722656 6.38672 0.917969 6.21094 0.996094C5.03906 1.58203 4.21875 2.8125 4.21875 4.21875C4.21875 6.21094 5.82031 7.8125 7.8125 7.8125C7.91016 7.8125 8.00781 7.8125 8.10547 7.79297C8.30078 7.79297 8.49609 7.89062 8.57422 8.08594C8.65234 8.26172 8.61328 8.47656 8.45703 8.61328C7.55859 9.47266 6.34766 10 5 10C2.24609 10 0 7.75391 0 5C0 2.24609 2.24609 0 5 0Z" fill="#A49980"/>
</svg>
