<svg width="12" height="12" viewBox="0 0 12 12" fill="none" xmlns="http://www.w3.org/2000/svg">
<path opacity="0.5" d="M5.625 9.0625C5.87891 9.0625 6.09375 9.27734 6.09375 9.53125V10.7812C6.09375 11.0352 5.87891 11.25 5.625 11.25C5.37109 11.25 5.15625 11.0352 5.15625 10.7812V9.53125C5.15625 9.27734 5.37109 9.0625 5.625 9.0625ZM2.53906 8.04688C2.71484 7.87109 3.00781 7.87109 3.20312 8.04688C3.37891 8.24219 3.37891 8.53516 3.20312 8.71094L2.30469 9.60938C2.12891 9.78516 1.83594 9.78516 1.64062 9.60938C1.46484 9.41406 1.46484 9.12109 1.64062 8.94531L2.53906 8.06641V8.04688ZM8.04688 8.04688C8.24219 7.87109 8.53516 7.87109 8.71094 8.04688L9.60938 8.94531C9.78516 9.12109 9.78516 9.41406 9.60938 9.60938C9.41406 9.78516 9.12109 9.78516 8.94531 9.60938L8.06641 8.71094C7.87109 8.53516 7.87109 8.24219 8.06641 8.04688H8.04688ZM5.625 8.125C4.23828 8.125 3.125 7.01172 3.125 5.625C3.125 4.23828 4.23828 3.125 5.625 3.125C7.01172 3.125 8.125 4.23828 8.125 5.625C8.125 7.01172 7.01172 8.125 5.625 8.125ZM1.71875 5.15625C1.97266 5.15625 2.1875 5.37109 2.1875 5.625C2.1875 5.87891 1.97266 6.09375 1.71875 6.09375H0.46875C0.214844 6.09375 0 5.87891 0 5.625C0 5.37109 0.214844 5.15625 0.46875 5.15625H1.71875ZM10.7812 5.15625C11.0352 5.15625 11.25 5.37109 11.25 5.625C11.25 5.87891 11.0352 6.09375 10.7812 6.09375H9.53125C9.27734 6.09375 9.0625 5.87891 9.0625 5.625C9.0625 5.37109 9.27734 5.15625 9.53125 5.15625H10.7812ZM1.64062 1.64062C1.83594 1.46484 2.12891 1.46484 2.30469 1.64062L3.20312 2.53906C3.37891 2.71484 3.37891 3.00781 3.20312 3.20312C3.00781 3.37891 2.71484 3.37891 2.53906 3.20312L1.64062 2.30469C1.46484 2.12891 1.46484 1.83594 1.64062 1.64062ZM8.94531 1.64062C9.12109 1.46484 9.41406 1.46484 9.60938 1.64062C9.78516 1.83594 9.78516 2.12891 9.60938 2.30469L8.71094 3.20312C8.53516 3.37891 8.24219 3.37891 8.04688 3.20312C7.87109 3.00781 7.87109 2.71484 8.04688 2.53906L8.94531 1.64062ZM5.625 0C5.87891 0 6.09375 0.214844 6.09375 0.46875V1.71875C6.09375 1.97266 5.87891 2.1875 5.625 2.1875C5.37109 2.1875 5.15625 1.97266 5.15625 1.71875V0.46875C5.15625 0.214844 5.37109 0 5.625 0Z" fill="#A49980"/>
</svg>
